<?xml version="1.0" encoding="UTF-8" standalone="no"?>
<!DOCTYPE svg PUBLIC "-//W3C//DTD SVG 1.1//EN" "http://www.w3.org/Graphics/SVG/1.1/DTD/svg11.dtd">
<svg width="100%" height="100%" viewBox="0 0 494 503" version="1.1" xmlns="http://www.w3.org/2000/svg" xmlns:xlink="http://www.w3.org/1999/xlink" xml:space="preserve" xmlns:serif="http://www.serif.com/" style="fill-rule:evenodd;clip-rule:evenodd;stroke-linecap:round;stroke-linejoin:round;stroke-miterlimit:1.5;">
    <g transform="matrix(1,0,0,1,-10,-18.376092)">
        <g transform="matrix(-1.035918,0,0,1,521.184404,1.078621)">
            <path d="M23.006,143.012L24.006,114.292C26.227,108.233 31.19,103.592 37.31,99.909C45.063,94.493 52.816,94.283 60.568,97.379L77.782,103.691L121.054,103.691L143.766,91.517C152.536,86.282 159.67,81.604 166.284,82.119C173.327,79.743 180.664,77.622 186.177,80.654L204.193,87.854L231.103,96.728L286.226,96.502C310.525,96.031 332.883,98.372 351.826,105.655C395.803,120.002 423.198,143.894 444.212,171.459C465.879,196.952 476.802,225.87 483.923,256C489.566,290.669 488.886,320.508 481.523,345.239L461.343,390.588L442.985,417.338C461.758,412.174 476.31,413.703 484.372,425.517L486.803,436.825L473.768,442.259L470.582,458.444L457.884,455.994L454.988,472.466L442.262,473.901L440.234,486.524L391.487,486.524L367.727,471.495C357.571,478.119 347.414,482.169 337.258,484.254L300.127,488.152C204.398,485.356 114.768,465.126 36.812,435.568C36.596,433.478 37.41,437.662 36.812,435.568C32.636,420.939 23.215,406.648 65.534,398.604C88.928,394.157 89.106,432.91 130.408,429.698C179.839,425.854 246.805,432.223 283.91,405.842C448.783,288.623 303.333,200.791 244.414,309.018L226.494,306.99L215.412,312.662L202.971,304.27L187.319,312.061L177.183,307.426L155.098,312.946C126.792,291.912 125.559,278.697 167.461,271.674C187.398,272.798 220.093,267.11 231.68,256C253.424,203.471 175.647,203.09 89.512,207.09L57.608,206.794L33.548,202.45L25.443,183.823L24.571,176.143L147.636,176.143L158.673,160.877L165.975,147.126L140.668,144.212L126.521,151.79L108.463,146.086L88.102,151.95L63.972,145.214L46.334,153.225L23.006,143.012Z" style="fill:rgb(63,118,2);stroke:black;stroke-width:11.79px;"/>
        </g>
        <g transform="matrix(-0.958861,0,0,0.977879,495.468017,10.053192)">
            <path d="M241.135,136.029C367.439,120.238 512.631,293.744 377.553,418.599C328.418,450.282 286.803,457.145 248.331,453.63L202.108,452.365" style="fill:none;stroke:black;stroke-width:19.28px;stroke-linecap:butt;stroke-linejoin:miter;stroke-miterlimit:7;stroke-dasharray:19.275,28.913,0,0,19.275,19.275;"/>
        </g>
        <g transform="matrix(-1,0,0,1,513.35258,0)">
            <path d="M189.123,143.076C178.208,142.853 155.046,154.468 145.446,176.761L23.006,177.674L23.006,194.461C32.646,203.376 44.197,206.653 56.935,206.425L91.432,207.156L194.497,206.414C210.388,199.326 216.898,189.263 218.254,176.055C213.191,157.18 205.588,145.37 189.123,143.076Z" style="fill:rgb(95,153,90);stroke:black;stroke-width:10.67px;"/>
        </g>
        <g transform="matrix(-0.844485,-0.52942,-0.524785,0.837093,616.15021,172.233284)">
            <path d="M209.007,407.914L208.571,359.766L224.328,359.735L225.47,344.673L238.381,344.091L240.389,329.603L255.337,327.749L256,315.876C275.587,301.782 301.031,340.018 276.662,358.513L256,377.161L256,394.662C246.43,402.664 231.583,407.563 209.007,407.914Z" style="fill:rgb(95,153,90);stroke:black;stroke-width:9.41px;"/>
        </g>
        <g transform="matrix(-1,0,0,1,504.745684,-6.372414)">
            <path d="M166.305,108.963C171.42,108.963 175.572,113.011 175.572,117.997C175.572,122.984 171.42,127.032 166.305,127.032C161.19,127.032 157.037,122.984 157.037,117.997C157.037,113.011 161.19,108.963 166.305,108.963ZM166.305,113.48C168.862,113.48 170.939,115.504 170.939,117.997C170.939,120.49 168.862,122.514 166.305,122.514C163.747,122.514 161.671,120.49 161.671,117.997C161.671,115.504 163.747,113.48 166.305,113.48Z" style="fill:none;stroke:black;stroke-width:10.67px;"/>
        </g>
        <g transform="matrix(-1.5,0,0,1.5,596.174649,-58.071034)">
            <ellipse cx="170.278" cy="111.625" rx="4.634" ry="4.517" style="fill:white;stroke:rgb(207,207,207);stroke-width:0.67px;"/>
        </g>
        <g transform="matrix(-1,0,0,1,513.35258,0)">
            <path d="M262.137,95.716C265.622,65.971 247.663,58.888 218.254,63.906C202.623,58.375 198.728,48.418 199.332,36.764L200.441,23.048C218.948,32.465 227.468,31.928 227.614,23.043L240.223,32.905L248.797,23.421L262.137,31.109L274.259,23.291C283.99,29.159 326.589,74.455 314.254,96.011L262.137,95.716Z" style="fill:rgb(95,153,90);stroke:black;stroke-width:9.33px;"/>
        </g>
    </g>
</svg>
