<svg xmlns="http://www.w3.org/2000/svg" viewBox="0 0 320 80">
  <defs>
    <linearGradient id="gatorGreen" x1="0%" y1="0%" x2="100%" y2="100%">
      <stop offset="0%" style="stop-color:#5a9a1a"/>
      <stop offset="100%" style="stop-color:#3F7602"/>
    </linearGradient>
  </defs>

  <!-- Compact gator icon - flipped to face right -->
  <g transform="translate(5, 8) scale(1)">
    <!-- Card corner -->
    <rect x="6" y="8" width="20" height="28" rx="2" fill="white" stroke="#f4c430" stroke-width="2" transform="rotate(-15, 16, 22)"/>
    <text x="10" y="22" font-family="Arial" font-size="10" font-weight="bold" fill="#3F7602" transform="rotate(-15, 16, 22)">8</text>

    <!-- Gator head - flipped (facing right) -->
    <path d="M 56 28 Q 62 32 60 38 Q 62 44 56 48 L 32 44 L 20 36 Q 12 32 12 28 Q 12 18 24 16 Q 32 14 40 18 Q 52 22 56 28 Z" fill="url(#gatorGreen)"/>

    <!-- Eye -->
    <circle cx="26" cy="24" r="7" fill="white"/>
    <circle cx="24" cy="24" r="4" fill="#2a4c04"/>
    <circle cx="25" cy="22" r="1.5" fill="white"/>

    <!-- Snout ridge -->
    <ellipse cx="46" cy="34" rx="8" ry="3" fill="#2a4c04" opacity="0.2"/>

    <!-- Nostril -->
    <circle cx="56" cy="36" r="2" fill="#2a4c04"/>

    <!-- Teeth -->
    <path d="M 52 40 L 50 44 L 48 40 M 44 39 L 42 43 L 40 39 M 36 38 L 34 42 L 32 38" stroke="white" stroke-width="2" fill="none" stroke-linecap="round"/>

    <!-- Smile -->
    <path d="M 32 42 Q 26 44 20 40" stroke="#2a4c04" stroke-width="1.5" fill="none" opacity="0.4"/>
  </g>

  <!-- Wordmark -->
  <text x="80" y="52" font-family="Poppins, system-ui, sans-serif" font-size="36" font-weight="700" fill="#3F7602">
    Estima<tspan fill="#f4c430">gator</tspan>
  </text>
</svg>
