<svg xmlns="http://www.w3.org/2000/svg" viewBox="0 0 64 64">
  <defs>
    <linearGradient id="gatorGreen" x1="0%" y1="0%" x2="100%" y2="100%">
      <stop offset="0%" style="stop-color:#5a9a1a"/>
      <stop offset="100%" style="stop-color:#3F7602"/>
    </linearGradient>
  </defs>

  <!-- Simple gator head silhouette with card -->
  <!-- Card corner peeking out -->
  <rect x="38" y="8" width="20" height="28" rx="2" fill="white" stroke="#f4c430" stroke-width="2" transform="rotate(15, 48, 22)"/>
  <text x="42" y="22" font-family="Arial" font-size="10" font-weight="bold" fill="#3F7602" transform="rotate(15, 48, 22)">8</text>

  <!-- Gator head -->
  <path d="M 8 28 Q 2 32 4 38 Q 2 44 8 48 L 32 44 L 44 36 Q 52 32 52 28 Q 52 18 40 16 Q 32 14 24 18 Q 12 22 8 28 Z" fill="url(#gatorGreen)"/>

  <!-- Eye -->
  <circle cx="38" cy="24" r="7" fill="white"/>
  <circle cx="40" cy="24" r="4" fill="#2a4c04"/>
  <circle cx="39" cy="22" r="1.5" fill="white"/>

  <!-- Snout ridge -->
  <ellipse cx="18" cy="34" rx="8" ry="3" fill="#2a4c04" opacity="0.2"/>

  <!-- Nostril -->
  <circle cx="8" cy="36" r="2" fill="#2a4c04"/>

  <!-- Teeth hint -->
  <path d="M 12 40 L 14 44 L 16 40 M 20 39 L 22 43 L 24 39 M 28 38 L 30 42 L 32 38" stroke="white" stroke-width="2" fill="none" stroke-linecap="round"/>

  <!-- Smile line -->
  <path d="M 32 42 Q 38 44 44 40" stroke="#2a4c04" stroke-width="1.5" fill="none" opacity="0.4"/>
</svg>
