<svg
  xmlns="http://www.w3.org/2000/svg"
  viewBox="0 0 104 78"
  role="img"
  aria-label="fried egg splat"
>
  <defs>
    <filter id="shadow" x="-20%" y="-20%" width="140%" height="140%">
      <feDropShadow dx="0" dy="2" stdDeviation="2" flood-color="#78350f" flood-opacity=".22" />
    </filter>
  </defs>
  <g filter="url(#shadow)">
    <path
      fill="#fff7ed"
      d="M50 5c10 0 13 11 20 14 7 4 20-1 26 7 5 7-5 15-4 23 1 9 10 14 4 21-6 8-18 1-27 3-8 2-13 10-24 8-10-1-11-12-18-15-7-2-19 2-23-7-4-8 7-14 8-22 1-7-6-15 0-22 6-8 18-1 27-3 5-1 6-7 11-7Z"
    />
    <path
      fill="#fffbeb"
      d="M43 13c-15 12-18 33-7 45 10 10 27 10 44 4-8 9-22 13-36 10-18-4-30-17-27-33 2-14 12-23 26-26Z"
      opacity=".82"
    />
    <path fill="#f59e0b" d="M48 28c8-7 23-5 28 5 6 10 0 24-12 27-11 3-24-3-26-14-1-7 3-14 10-18Z" />
    <path fill="#fbbf24" d="M52 31c7-4 17-1 21 7 4 8 0 17-9 20-8 2-18-3-20-11-1-6 2-12 8-16Z" />
    <path fill="#fef3c7" d="M54 34c4-2 9-1 12 2-7 0-13 4-16 10-2-5-1-9 4-12Z" opacity=".75" />
    <path
      fill="#fed7aa"
      d="M13 43c5 3 11 4 18 3m43 18c6-3 11-6 17-5M26 21c5 2 9 1 13-1"
      stroke="#fed7aa"
      stroke-width="3"
      stroke-linecap="round"
    />
  </g>
</svg>
