<svg xmlns="http://www.w3.org/2000/svg" viewBox="0 0 96 80" role="img" aria-label="tomato splat">
  <defs>
    <filter id="shadow" x="-20%" y="-20%" width="140%" height="140%">
      <feDropShadow dx="0" dy="2" stdDeviation="2" flood-color="#7f1d1d" flood-opacity=".25" />
    </filter>
  </defs>
  <g filter="url(#shadow)">
    <path
      fill="#d91f26"
      d="M48 8c6 0 10 8 14 11 5 3 15-1 19 4s-2 13-1 19c2 6 12 11 9 17-2 6-14 4-19 7-5 4-6 14-13 14-6 1-10-9-16-10-6-2-14 5-19 1s1-14-2-19C17 47 7 45 7 38c0-6 11-8 15-13 3-5 0-15 6-18 5-3 13 5 20 1Z"
    />
    <path
      fill="#b91c1c"
      d="M35 14c-7 11-8 27-1 37 8 13 26 12 40 6-6 7-16 12-27 11-20-1-32-15-30-30 1-11 8-19 18-24Z"
      opacity=".42"
    />
    <path
      fill="#ef4444"
      d="M34 24c6-7 20-9 31-2 8 5 12 14 10 23-2 10-10 18-22 19-14 1-25-7-28-18-2-8 1-17 9-22Z"
      opacity=".72"
    />
    <path
      fill="#fee2e2"
      d="M35 25c5-5 13-6 19-4-8 2-14 6-18 12-3 5-4 10-4 15-5-8-4-17 3-23Z"
      opacity=".45"
    />
    <path fill="#14532d" d="M49 12 43 3l8 5 7-7-2 9 10-1-8 6 4 8-9-5-8 6 3-10-10-2 11-1Z" />
    <g fill="#fecaca" opacity=".9">
      <ellipse cx="39" cy="43" rx="2.5" ry="1.3" transform="rotate(-24 39 43)" />
      <ellipse cx="52" cy="34" rx="2.4" ry="1.2" transform="rotate(18 52 34)" />
      <ellipse cx="60" cy="49" rx="2.2" ry="1.2" transform="rotate(-12 60 49)" />
    </g>
  </g>
</svg>
